TITLE ""
FILE "LR_black_phrase_E_S10.mp3" MP3
  TRACK 01 AUDIO
    TITLE "LR_black_phrase_E_S10_001"
    INDEX 01 00:00:00
  TRACK 02 AUDIO
    TITLE "LR_black_phrase_E_S10_002"
    INDEX 01 00:00:14
  TRACK 03 AUDIO
    TITLE "LR_black_phrase_E_S10_003"
    INDEX 01 00:01:53
  TRACK 04 AUDIO
    TITLE "LR_black_phrase_E_S10_004"
    INDEX 01 00:02:07
  TRACK 05 AUDIO
    TITLE "LR_black_phrase_E_S10_005"
    INDEX 01 00:04:20
  TRACK 06 AUDIO
    TITLE "LR_black_phrase_E_S10_006"
    INDEX 01 00:04:75
  TRACK 07 AUDIO
    TITLE "LR_black_phrase_E_S10_007"
    INDEX 01 00:07:12
  TRACK 08 AUDIO
    TITLE "LR_black_phrase_E_S10_008"
    INDEX 01 00:08:18
  TRACK 09 AUDIO
    TITLE "LR_black_phrase_E_S10_009"
    INDEX 01 00:09:35
  TRACK 10 AUDIO
    TITLE "LR_black_phrase_E_S10_010"
    INDEX 01 00:09:64
  TRACK 11 AUDIO
    TITLE "LR_black_phrase_E_S10_011"
    INDEX 01 00:12:21
  TRACK 12 AUDIO
    TITLE "LR_black_phrase_E_S10_012"
    INDEX 01 00:13:01
  TRACK 13 AUDIO
    TITLE "LR_black_phrase_E_S10_013"
    INDEX 01 00:15:35
  TRACK 14 AUDIO
    TITLE "LR_black_phrase_E_S10_014"
    INDEX 01 00:16:41
  TRACK 15 AUDIO
    TITLE "LR_black_phrase_E_S10_015"
    INDEX 01 00:18:14
  TRACK 16 AUDIO
    TITLE "LR_black_phrase_E_S10_016"
    INDEX 01 00:18:32
  TRACK 17 AUDIO
    TITLE "LR_black_phrase_E_S10_017"
    INDEX 01 00:20:58
  TRACK 18 AUDIO
    TITLE "LR_black_phrase_E_S10_018"
    INDEX 01 00:21:26
  TRACK 19 AUDIO
    TITLE "LR_black_phrase_E_S10_019"
    INDEX 01 00:23:54
  TRACK 20 AUDIO
    TITLE "LR_black_phrase_E_S10_020"
    INDEX 01 00:24:46
  TRACK 21 AUDIO
    TITLE "LR_black_phrase_E_S10_021"
    INDEX 01 00:25:69
  TRACK 22 AUDIO
    TITLE "LR_black_phrase_E_S10_022"
    INDEX 01 00:26:18
  TRACK 23 AUDIO
    TITLE "LR_black_phrase_E_S10_023"
    INDEX 01 00:28:48
  TRACK 24 AUDIO
    TITLE "LR_black_phrase_E_S10_024"
    INDEX 01 00:29:18
  TRACK 25 AUDIO
    TITLE "LR_black_phrase_E_S10_025"
    INDEX 01 00:31:48
  TRACK 26 AUDIO
    TITLE "LR_black_phrase_E_S10_026"
    INDEX 01 00:32:48
  TRACK 27 AUDIO
    TITLE "LR_black_phrase_E_S10_027"
    INDEX 01 00:33:61
  TRACK 28 AUDIO
    TITLE "LR_black_phrase_E_S10_028"
    INDEX 01 00:34:15
  TRACK 29 AUDIO
    TITLE "LR_black_phrase_E_S10_029"
    INDEX 01 00:36:37
  TRACK 30 AUDIO
    TITLE "LR_black_phrase_E_S10_030"
    INDEX 01 00:37:17
  TRACK 31 AUDIO
    TITLE "LR_black_phrase_E_S10_031"
    INDEX 01 00:39:40
  TRACK 32 AUDIO
    TITLE "LR_black_phrase_E_S10_032"
    INDEX 01 00:40:45
  TRACK 33 AUDIO
    TITLE "LR_black_phrase_E_S10_033"
    INDEX 01 00:41:68
  TRACK 34 AUDIO
    TITLE "LR_black_phrase_E_S10_034"
    INDEX 01 00:42:22
  TRACK 35 AUDIO
    TITLE "LR_black_phrase_E_S10_035"
    INDEX 01 00:44:27
  TRACK 36 AUDIO
    TITLE "LR_black_phrase_E_S10_036"
    INDEX 01 00:45:07
  TRACK 37 AUDIO
    TITLE "LR_black_phrase_E_S10_037"
    INDEX 01 00:47:12
  TRACK 38 AUDIO
    TITLE "LR_black_phrase_E_S10_038"
    INDEX 01 00:48:17
  TRACK 39 AUDIO
    TITLE "LR_black_phrase_E_S10_039"
    INDEX 01 00:49:22
  TRACK 40 AUDIO
    TITLE "LR_black_phrase_E_S10_040"
    INDEX 01 00:49:42
  TRACK 41 AUDIO
    TITLE "LR_black_phrase_E_S10_041"
    INDEX 01 00:51:17
  TRACK 42 AUDIO
    TITLE "LR_black_phrase_E_S10_042"
    INDEX 01 00:51:66
  TRACK 43 AUDIO
    TITLE "LR_black_phrase_E_S10_043"
    INDEX 01 00:53:40
  TRACK 44 AUDIO
    TITLE "LR_black_phrase_E_S10_044"
    INDEX 01 00:54:37
  TRACK 45 AUDIO
    TITLE "LR_black_phrase_E_S10_045"
    INDEX 01 00:55:56
  TRACK 46 AUDIO
    TITLE "LR_black_phrase_E_S10_046"
    INDEX 01 00:56:05
  TRACK 47 AUDIO
    TITLE "LR_black_phrase_E_S10_047"
    INDEX 01 00:58:04
  TRACK 48 AUDIO
    TITLE "LR_black_phrase_E_S10_048"
    INDEX 01 00:58:51
  TRACK 49 AUDIO
    TITLE "LR_black_phrase_E_S10_049"
    INDEX 01 01:00:48
  TRACK 50 AUDIO
    TITLE "LR_black_phrase_E_S10_050"
    INDEX 01 01:01:49
  TRACK 51 AUDIO
    TITLE "LR_black_phrase_E_S10_051"
    INDEX 01 01:03:01
  TRACK 52 AUDIO
    TITLE "LR_black_phrase_E_S10_052"
    INDEX 01 01:03:32
  TRACK 53 AUDIO
    TITLE "LR_black_phrase_E_S10_053"
    INDEX 01 01:06:05
  TRACK 54 AUDIO
    TITLE "LR_black_phrase_E_S10_054"
    INDEX 01 01:06:60
  TRACK 55 AUDIO
    TITLE "LR_black_phrase_E_S10_055"
    INDEX 01 01:09:33
  TRACK 56 AUDIO
    TITLE "LR_black_phrase_E_S10_056"
    INDEX 01 01:10:36
  TRACK 57 AUDIO
    TITLE "LR_black_phrase_E_S10_057"
    INDEX 01 01:11:57
  TRACK 58 AUDIO
    TITLE "LR_black_phrase_E_S10_058"
    INDEX 01 01:12:10
  TRACK 59 AUDIO
    TITLE "LR_black_phrase_E_S10_059"
    INDEX 01 01:14:46
  TRACK 60 AUDIO
    TITLE "LR_black_phrase_E_S10_060"
    INDEX 01 01:15:28
  TRACK 61 AUDIO
    TITLE "LR_black_phrase_E_S10_061"
    INDEX 01 01:17:64
  TRACK 62 AUDIO
    TITLE "LR_black_phrase_E_S10_062"
    INDEX 01 01:18:69
  TRACK 63 AUDIO
    TITLE "LR_black_phrase_E_S10_063"
    INDEX 01 01:20:19
  TRACK 64 AUDIO
    TITLE "LR_black_phrase_E_S10_064"
    INDEX 01 01:20:39
  TRACK 65 AUDIO
    TITLE "LR_black_phrase_E_S10_065"
    INDEX 01 01:23:02
  TRACK 66 AUDIO
    TITLE "LR_black_phrase_E_S10_066"
    INDEX 01 01:23:49
  TRACK 67 AUDIO
    TITLE "LR_black_phrase_E_S10_067"
    INDEX 01 01:26:14
  TRACK 68 AUDIO
    TITLE "LR_black_phrase_E_S10_068"
    INDEX 01 01:27:09
  TRACK 69 AUDIO
    TITLE "LR_black_phrase_E_S10_069"
    INDEX 01 01:28:26
  TRACK 70 AUDIO
    TITLE "LR_black_phrase_E_S10_070"
    INDEX 01 01:28:44
  TRACK 71 AUDIO
    TITLE "LR_black_phrase_E_S10_071"
    INDEX 01 01:30:41
  TRACK 72 AUDIO
    TITLE "LR_black_phrase_E_S10_072"
    INDEX 01 01:31:15
  TRACK 73 AUDIO
    TITLE "LR_black_phrase_E_S10_073"
    INDEX 01 01:33:10
  TRACK 74 AUDIO
    TITLE "LR_black_phrase_E_S10_074"
    INDEX 01 01:34:15
  TRACK 75 AUDIO
    TITLE "LR_black_phrase_E_S10_075"
    INDEX 01 01:35:36
  TRACK 76 AUDIO
    TITLE "LR_black_phrase_E_S10_076"
    INDEX 01 01:35:66
  TRACK 77 AUDIO
    TITLE "LR_black_phrase_E_S10_077"
    INDEX 01 01:38:05
  TRACK 78 AUDIO
    TITLE "LR_black_phrase_E_S10_078"
    INDEX 01 01:38:62
  TRACK 79 AUDIO
    TITLE "LR_black_phrase_E_S10_079"
    INDEX 01 01:41:04
  TRACK 80 AUDIO
    TITLE "LR_black_phrase_E_S10_080"
    INDEX 01 01:42:09
  TRACK 81 AUDIO
    TITLE "LR_black_phrase_E_S10_081"
    INDEX 01 01:43:34
  TRACK 82 AUDIO
    TITLE "LR_black_phrase_E_S10_082"
    INDEX 01 01:43:65
  TRACK 83 AUDIO
    TITLE "LR_black_phrase_E_S10_083"
    INDEX 01 01:46:40
  TRACK 84 AUDIO
    TITLE "LR_black_phrase_E_S10_084"
    INDEX 01 01:47:20
  TRACK 85 AUDIO
    TITLE "LR_black_phrase_E_S10_085"
    INDEX 01 01:49:70
  TRACK 86 AUDIO
    TITLE "LR_black_phrase_E_S10_086"
    INDEX 01 01:50:73
  TRACK 87 AUDIO
    TITLE "LR_black_phrase_E_S10_087"
    INDEX 01 01:52:05
  TRACK 88 AUDIO
    TITLE "LR_black_phrase_E_S10_088"
    INDEX 01 01:52:27
  TRACK 89 AUDIO
    TITLE "LR_black_phrase_E_S10_089"
    INDEX 01 01:54:18
  TRACK 90 AUDIO
    TITLE "LR_black_phrase_E_S10_090"
    INDEX 01 01:54:61
  TRACK 91 AUDIO
    TITLE "LR_black_phrase_E_S10_091"
    INDEX 01 01:56:52
  TRACK 92 AUDIO
    TITLE "LR_black_phrase_E_S10_092"
    INDEX 01 01:57:48
  TRACK 93 AUDIO
    TITLE "LR_black_phrase_E_S10_093"
    INDEX 01 01:58:65
  TRACK 94 AUDIO
    TITLE "LR_black_phrase_E_S10_094"
    INDEX 01 01:59:09
  TRACK 95 AUDIO
    TITLE "LR_black_phrase_E_S10_095"
    INDEX 01 02:00:64
  TRACK 96 AUDIO
    TITLE "LR_black_phrase_E_S10_096"
    INDEX 01 02:01:38
  TRACK 97 AUDIO
    TITLE "LR_black_phrase_E_S10_097"
    INDEX 01 02:03:17
  TRACK 98 AUDIO
    TITLE "LR_black_phrase_E_S10_098"
    INDEX 01 02:04:20
  TRACK 99 AUDIO
    TITLE "LR_black_phrase_E_S10_099"
    INDEX 01 02:05:55
  TRACK 100 AUDIO
    TITLE "LR_black_phrase_E_S10_100"
    INDEX 01 02:06:07
  TRACK 101 AUDIO
    TITLE "LR_black_phrase_E_S10_101"
    INDEX 01 02:08:75
  TRACK 102 AUDIO
    TITLE "LR_black_phrase_E_S10_102"
    INDEX 01 02:09:53
  TRACK 103 AUDIO
    TITLE "LR_black_phrase_E_S10_103"
    INDEX 01 02:12:45
  TRACK 104 AUDIO
    TITLE "LR_black_phrase_E_S10_104"
    INDEX 01 02:13:47
  TRACK 105 AUDIO
    TITLE "LR_black_phrase_E_S10_105"
    INDEX 01 02:14:60
  TRACK 106 AUDIO
    TITLE "LR_black_phrase_E_S10_106"
    INDEX 01 02:15:14
  TRACK 107 AUDIO
    TITLE "LR_black_phrase_E_S10_107"
    INDEX 01 02:17:01
  TRACK 108 AUDIO
    TITLE "LR_black_phrase_E_S10_108"
    INDEX 01 02:17:56
  TRACK 109 AUDIO
    TITLE "LR_black_phrase_E_S10_109"
    INDEX 01 02:19:43
  TRACK 110 AUDIO
    TITLE "LR_black_phrase_E_S10_110"
    INDEX 01 02:20:45
  TRACK 111 AUDIO
    TITLE "LR_black_phrase_E_S10_111"
    INDEX 01 02:21:52
  TRACK 112 AUDIO
    TITLE "LR_black_phrase_E_S10_112"
    INDEX 01 02:21:74
  TRACK 113 AUDIO
    TITLE "LR_black_phrase_E_S10_113"
    INDEX 01 02:23:39
  TRACK 114 AUDIO
    TITLE "LR_black_phrase_E_S10_114"
    INDEX 01 02:24:11
  TRACK 115 AUDIO
    TITLE "LR_black_phrase_E_S10_115"
    INDEX 01 02:25:52
  TRACK 116 AUDIO
    TITLE "LR_black_phrase_E_S10_116"
    INDEX 01 02:26:51
  TRACK 117 AUDIO
    TITLE "LR_black_phrase_E_S10_117"
    INDEX 01 02:27:61
  TRACK 118 AUDIO
    TITLE "LR_black_phrase_E_S10_118"
    INDEX 01 02:28:07
  TRACK 119 AUDIO
    TITLE "LR_black_phrase_E_S10_119"
    INDEX 01 02:30:37
  TRACK 120 AUDIO
    TITLE "LR_black_phrase_E_S10_120"
    INDEX 01 02:31:09
  TRACK 121 AUDIO
    TITLE "LR_black_phrase_E_S10_121"
    INDEX 01 02:33:36
